<svg xmlns="http://www.w3.org/2000/svg" width="299.38" height="147.008" viewBox="0 0 299.38 147.008">
  <g id="Group_412" data-name="Group 412" transform="translate(-36 -40.5)">
    <path id="Path_471" data-name="Path 471" d="M175.016,80.691a73.5,73.5,0,1,0,0,66.627l-43.268-16.846a26.461,26.461,0,1,1,0-32.934Z" transform="translate(0)" fill="#1a1818"/>
    <path id="Path_472" data-name="Path 472" d="M324.1,117.283a2.5,2.5,0,0,1-.8.129c-.647,0-1.113-.337-1.113-1.294V101.134h-1.32V116.3a2.018,2.018,0,0,0,2.2,2.252,4.172,4.172,0,0,0,1.034-.129Zm-8.229,1.139h1.32V106.465h-1.32Zm-.311-15.631a.94.94,0,0,0,.958.958.968.968,0,0,0,1.01-.958.994.994,0,0,0-1.01-1.009.968.968,0,0,0-.958,1.009m-3.6,12.319a3.011,3.011,0,0,1-3.261,2.458c-2.355,0-3.8-1.94-3.8-5.047,0-3.157,1.32-5.15,3.779-5.15,1.837,0,2.82.984,3.054,2.846l1.216-.181c-.207-2.51-1.656-3.8-4.193-3.8-3.183,0-5.123,2.277-5.123,6.263,0,4.063,1.967,6.159,4.969,6.159,2.3,0,4.063-.931,4.477-3.312Zm-19.125-8.644h-1.009v11.957h1.32v-6.781c0-2.924,1.683-4.244,3.571-4.244,1.708,0,2.64,1.061,2.64,2.949v8.075h1.32v-8.411c0-2.666-1.578-3.779-3.649-3.779a4,4,0,0,0-4.011,2.976Zm-5.978,11.957h1.112V106.465h-1.32V113.4c0,2.718-1.683,4.245-3.52,4.245-1.734,0-2.665-.958-2.665-3.08v-8.1h-1.32v8.256c0,2.821,1.475,3.933,3.648,3.933a3.741,3.741,0,0,0,3.883-2.846Zm-15.683-11.077c2.484,0,3.83,1.683,3.83,5.047,0,3.417-1.346,5.2-3.83,5.2-2.459,0-3.8-1.786-3.8-5.2,0-3.364,1.346-5.047,3.8-5.047m0,11.31c3.183,0,5.123-2.2,5.123-6.263,0-4.036-1.94-6.159-5.123-6.159-3.132,0-5.1,2.122-5.1,6.159,0,4.064,1.968,6.263,5.1,6.263m-7.919-4.011a4.726,4.726,0,0,1-4.632,2.795c-3.417,0-5.228-2.484-5.228-6.6,0-4.167,1.94-6.729,5.331-6.729a4.274,4.274,0,0,1,4.3,3.054l1.216-.595a5.354,5.354,0,0,0-5.435-3.624c-4.037,0-6.832,2.8-6.832,7.894s2.639,7.815,6.6,7.815a5.812,5.812,0,0,0,5.668-3.235Z" transform="translate(11.284 3.168)" fill="#1a1818"/>
    <path id="Path_473" data-name="Path 473" d="M253.415,114.638a3.719,3.719,0,0,1-2.174.8c-.954,0-1.458-.4-1.458-1.67V109.23h3.659v-3.023h-3.632v-3.048l-3.924.45v2.6h-.975l-1.293,3.023h2.242v5.436c0,2.969,1.7,4.109,4.189,4.109a8.883,8.883,0,0,0,4.03-.822Zm-16.174-5.409v9.227h3.925V109.23H243l1.294-3.023h-3.128v-.636c0-1.406.689-1.724,1.67-1.724a4.15,4.15,0,0,1,2.148.53l.53-3.235a7.075,7.075,0,0,0-3.128-.61c-2.864,0-5.144,1.3-5.144,4.932v.742h-1.8v3.023Zm-4,.822c0-2.7-1.671-4.136-4.959-4.136-3,0-5.17,1.326-5.356,3.925l3.951.742c.053-1.061.45-1.724,1.3-1.724.874,0,1.166.637,1.166,1.565v1.034c-4.613-.265-6.841,1.193-6.841,3.924a3.241,3.241,0,0,0,3.58,3.394c1.724,0,3-.477,3.553-1.988.45,1.325,1.431,1.909,3.048,1.909a3.965,3.965,0,0,0,2.228-.5v-2.811a1.965,1.965,0,0,1-.8.213c-.557,0-.874-.319-.874-1.114Zm-3.9,4.508c0,1.113-.954,1.458-1.75,1.458a1.042,1.042,0,0,1-1.166-1.034c0-.928.689-1.565,2.916-1.485Zm-7.636-8.618c-3.393-.211-4.507,1.538-5.037,3.66l-.478-3.395h-3.42v12.25h3.924v-5.409a2.746,2.746,0,0,1,3.049-3.023,4.369,4.369,0,0,1,1.485.239Zm-14.4,7.159a3.084,3.084,0,0,1-2.917,2.148c-2.439,0-3.659-1.67-3.659-4.534,0-2.917,1.352-4.667,3.553-4.667,1.67,0,2.333.928,2.757,2.386l3.871-1.882a6.543,6.543,0,0,0-6.523-4.03c-4.9,0-7.742,2.889-7.742,8.087s2.971,8.166,7.266,8.166c3.606,0,5.435-1.22,6.867-3.685Zm-26.063-6.894h-1.034v12.25h1.352V111.51c0-3,1.724-4.348,3.659-4.348,1.751,0,2.705,1.087,2.705,3.022v8.273h1.352V109.84c0-2.732-1.617-3.871-3.739-3.871a4.1,4.1,0,0,0-4.11,3.048Zm-5.143,3.527c0-2.837-1.856-3.765-4.084-3.765-2.015,0-4.056.822-4.243,3.42l1.247.186a2.512,2.512,0,0,1,2.863-2.466c1.671,0,2.864.689,2.864,2.784v1.7a10.444,10.444,0,0,0-1.538-.08c-3.951,0-5.86,1.406-5.86,3.9,0,2.069,1.458,3.288,3.712,3.288a3.76,3.76,0,0,0,3.765-2.307c.08,1.537.769,2.174,1.989,2.174a3.273,3.273,0,0,0,.822-.106v-1.113a1.167,1.167,0,0,1-.557.105c-.637,0-.981-.4-.981-1.537Zm-1.352,4.878a3.16,3.16,0,0,1-3.421,3c-1.724,0-2.625-.928-2.625-2.334,0-1.882,1.671-2.757,4.773-2.757a9.728,9.728,0,0,1,1.273.079Zm-10.42.451a3.084,3.084,0,0,1-3.341,2.518c-2.413,0-3.9-1.988-3.9-5.17,0-3.235,1.352-5.277,3.871-5.277,1.882,0,2.889,1.008,3.128,2.917l1.246-.185c-.212-2.572-1.7-3.9-4.3-3.9-3.261,0-5.25,2.333-5.25,6.417,0,4.163,2.015,6.31,5.091,6.31,2.36,0,4.163-.954,4.587-3.395Zm-13.018,3.394h1.352v-12.25h-1.352Zm-.319-16.015a.964.964,0,0,0,.982.982.993.993,0,0,0,1.034-.982,1.019,1.019,0,0,0-1.034-1.033.992.992,0,0,0-.982,1.033m-2.12,3.686a2.415,2.415,0,0,0-.822-.133c-2.254,0-3.66,1.485-4.031,3.685l-.185-3.473h-1.113v12.25h1.352v-6.364c0-2.651,1.458-4.666,3.526-4.666a2.852,2.852,0,0,1,1.141.185Zm-17.632,5.17c.239-2.651,1.538-4.215,3.819-4.215a3.176,3.176,0,0,1,3.235,3.5,6.261,6.261,0,0,1-.026.716Zm3.924,6.311c-2.492,0-3.976-1.91-3.976-5.2h8.273a8.188,8.188,0,0,0,.159-1.565c0-2.811-1.512-4.878-4.482-4.878-3.235,0-5.25,2.333-5.25,6.389,0,4.19,2.015,6.338,5.171,6.338,2.333,0,4.083-.9,4.534-3.235L138.4,115.2a2.942,2.942,0,0,1-3.236,2.413m-15.855-8.592a3.072,3.072,0,0,0-3.42-3.048,3.889,3.889,0,0,0-3.925,3.022l-.185-2.784h-1.034v12.25h1.352V111.51c0-2.863,1.617-4.348,3.5-4.348,1.671,0,2.545,1.087,2.545,3.022v8.273h1.352V111.51c0-2.863,1.618-4.348,3.473-4.348,1.7,0,2.573,1.087,2.573,3.022v8.273h1.352v-8.7c0-2.652-1.485-3.791-3.632-3.791a3.935,3.935,0,0,0-3.951,3.048m-18.9-1.378a38.921,38.921,0,0,0,1.273-3.871h.105a37.8,37.8,0,0,0,1.273,3.9l1.724,4.64H98.652Zm6.682,10.818h1.485l-5.886-15.617h-1.83l-5.939,15.617h1.458l1.856-4.958h7l1.856,4.958" transform="translate(3.078 3.136)" fill="#1a1818"/>
  </g>
</svg>
